<svg id="visual" viewBox="0 0 960 540" width="960" height="540" xmlns="http://www.w3.org/2000/svg" xmlns:xlink="http://www.w3.org/1999/xlink" version="1.1"><rect x="0" y="0" width="960" height="540" fill="#000000"></rect><path d="M0 482L8.8 483.8C17.7 485.7 35.3 489.3 53.2 491.7C71 494 89 495 106.8 495.5C124.7 496 142.3 496 160 491.3C177.7 486.7 195.3 477.3 213.2 474.5C231 471.7 249 475.3 266.8 473.3C284.7 471.3 302.3 463.7 320 461C337.7 458.3 355.3 460.7 373.2 463C391 465.3 409 467.7 426.8 465.8C444.7 464 462.3 458 480 454.7C497.7 451.3 515.3 450.7 533.2 456.8C551 463 569 476 586.8 480.8C604.7 485.7 622.3 482.3 640 479.3C657.7 476.3 675.3 473.7 693.2 470.3C711 467 729 463 746.8 465.5C764.7 468 782.3 477 800 482C817.7 487 835.3 488 853.2 490.7C871 493.3 889 497.7 906.8 497.2C924.7 496.7 942.3 491.3 951.2 488.7L960 486L960 541L951.2 541C942.3 541 924.7 541 906.8 541C889 541 871 541 853.2 541C835.3 541 817.7 541 800 541C782.3 541 764.7 541 746.8 541C729 541 711 541 693.2 541C675.3 541 657.7 541 640 541C622.3 541 604.7 541 586.8 541C569 541 551 541 533.2 541C515.3 541 497.7 541 480 541C462.3 541 444.7 541 426.8 541C409 541 391 541 373.2 541C355.3 541 337.7 541 320 541C302.3 541 284.7 541 266.8 541C249 541 231 541 213.2 541C195.3 541 177.7 541 160 541C142.3 541 124.7 541 106.8 541C89 541 71 541 53.2 541C35.3 541 17.7 541 8.8 541L0 541Z" fill="#000011"></path><path d="M0 501L8.8 498.2C17.7 495.3 35.3 489.7 53.2 483.7C71 477.7 89 471.3 106.8 474.7C124.7 478 142.3 491 160 493.8C177.7 496.7 195.3 489.3 213.2 488.2C231 487 249 492 266.8 489C284.7 486 302.3 475 320 471.8C337.7 468.7 355.3 473.3 373.2 475.7C391 478 409 478 426.8 478.3C444.7 478.7 462.3 479.3 480 481.7C497.7 484 515.3 488 533.2 485C551 482 569 472 586.8 467.8C604.7 463.7 622.3 465.3 640 468.2C657.7 471 675.3 475 693.2 474.3C711 473.7 729 468.3 746.8 468C764.7 467.7 782.3 472.3 800 476.2C817.7 480 835.3 483 853.2 483.5C871 484 889 482 906.8 485.2C924.7 488.3 942.3 496.7 951.2 500.8L960 505L960 541L951.2 541C942.3 541 924.7 541 906.8 541C889 541 871 541 853.2 541C835.3 541 817.7 541 800 541C782.3 541 764.7 541 746.8 541C729 541 711 541 693.2 541C675.3 541 657.7 541 640 541C622.3 541 604.7 541 586.8 541C569 541 551 541 533.2 541C515.3 541 497.7 541 480 541C462.3 541 444.7 541 426.8 541C409 541 391 541 373.2 541C355.3 541 337.7 541 320 541C302.3 541 284.7 541 266.8 541C249 541 231 541 213.2 541C195.3 541 177.7 541 160 541C142.3 541 124.7 541 106.8 541C89 541 71 541 53.2 541C35.3 541 17.7 541 8.8 541L0 541Z" fill="#182335"></path><path d="M0 471L8.8 476C17.7 481 35.3 491 53.2 496.7C71 502.3 89 503.7 106.8 499.5C124.7 495.3 142.3 485.7 160 485C177.7 484.3 195.3 492.7 213.2 496.2C231 499.7 249 498.3 266.8 497.3C284.7 496.3 302.3 495.7 320 497.7C337.7 499.7 355.3 504.3 373.2 506.8C391 509.3 409 509.7 426.8 504C444.7 498.3 462.3 486.7 480 481.7C497.7 476.7 515.3 478.3 533.2 481C551 483.7 569 487.3 586.8 491.7C604.7 496 622.3 501 640 500.5C657.7 500 675.3 494 693.2 493.2C711 492.3 729 496.7 746.8 498C764.7 499.3 782.3 497.7 800 495.8C817.7 494 835.3 492 853.2 492.7C871 493.3 889 496.7 906.8 495.7C924.7 494.7 942.3 489.3 951.2 486.7L960 484L960 541L951.2 541C942.3 541 924.7 541 906.8 541C889 541 871 541 853.2 541C835.3 541 817.7 541 800 541C782.3 541 764.7 541 746.8 541C729 541 711 541 693.2 541C675.3 541 657.7 541 640 541C622.3 541 604.7 541 586.8 541C569 541 551 541 533.2 541C515.3 541 497.7 541 480 541C462.3 541 444.7 541 426.8 541C409 541 391 541 373.2 541C355.3 541 337.7 541 320 541C302.3 541 284.7 541 266.8 541C249 541 231 541 213.2 541C195.3 541 177.7 541 160 541C142.3 541 124.7 541 106.8 541C89 541 71 541 53.2 541C35.3 541 17.7 541 8.8 541L0 541Z" fill="#22415c"></path><path d="M0 513L8.8 511.5C17.7 510 35.3 507 53.2 504.5C71 502 89 500 106.8 499.3C124.7 498.7 142.3 499.3 160 500.5C177.7 501.7 195.3 503.3 213.2 502.7C231 502 249 499 266.8 496.8C284.7 494.7 302.3 493.3 320 494.8C337.7 496.3 355.3 500.7 373.2 503.8C391 507 409 509 426.8 508.2C444.7 507.3 462.3 503.7 480 500C497.7 496.3 515.3 492.7 533.2 489.7C551 486.7 569 484.3 586.8 485.7C604.7 487 622.3 492 640 497.8C657.7 503.7 675.3 510.3 693.2 511C711 511.7 729 506.3 746.8 500.3C764.7 494.3 782.3 487.7 800 486.5C817.7 485.3 835.3 489.7 853.2 494.5C871 499.3 889 504.7 906.8 503.2C924.7 501.7 942.3 493.3 951.2 489.2L960 485L960 541L951.2 541C942.3 541 924.7 541 906.8 541C889 541 871 541 853.2 541C835.3 541 817.7 541 800 541C782.3 541 764.7 541 746.8 541C729 541 711 541 693.2 541C675.3 541 657.7 541 640 541C622.3 541 604.7 541 586.8 541C569 541 551 541 533.2 541C515.3 541 497.7 541 480 541C462.3 541 444.7 541 426.8 541C409 541 391 541 373.2 541C355.3 541 337.7 541 320 541C302.3 541 284.7 541 266.8 541C249 541 231 541 213.2 541C195.3 541 177.7 541 160 541C142.3 541 124.7 541 106.8 541C89 541 71 541 53.2 541C35.3 541 17.7 541 8.8 541L0 541Z" fill="#226384"></path><path d="M0 503L8.8 506C17.7 509 35.3 515 53.2 514.7C71 514.3 89 507.7 106.8 507.2C124.7 506.7 142.3 512.3 160 512.2C177.7 512 195.3 506 213.2 503.5C231 501 249 502 266.8 503.7C284.7 505.3 302.3 507.7 320 507.5C337.7 507.3 355.3 504.7 373.2 506.2C391 507.7 409 513.3 426.8 514.8C444.7 516.3 462.3 513.7 480 511.2C497.7 508.7 515.3 506.3 533.2 503.5C551 500.7 569 497.3 586.8 500.2C604.7 503 622.3 512 640 513.3C657.7 514.7 675.3 508.3 693.2 503.2C711 498 729 494 746.8 493.8C764.7 493.7 782.3 497.3 800 497.3C817.7 497.3 835.3 493.7 853.2 495.7C871 497.7 889 505.3 906.8 509.3C924.7 513.3 942.3 513.7 951.2 513.8L960 514L960 541L951.2 541C942.3 541 924.7 541 906.8 541C889 541 871 541 853.2 541C835.3 541 817.7 541 800 541C782.3 541 764.7 541 746.8 541C729 541 711 541 693.2 541C675.3 541 657.7 541 640 541C622.3 541 604.7 541 586.8 541C569 541 551 541 533.2 541C515.3 541 497.7 541 480 541C462.3 541 444.7 541 426.8 541C409 541 391 541 373.2 541C355.3 541 337.7 541 320 541C302.3 541 284.7 541 266.8 541C249 541 231 541 213.2 541C195.3 541 177.7 541 160 541C142.3 541 124.7 541 106.8 541C89 541 71 541 53.2 541C35.3 541 17.7 541 8.8 541L0 541Z" fill="#1088aa"></path><path d="M0 518L8.8 518C17.7 518 35.3 518 53.2 519.2C71 520.3 89 522.7 106.8 521.5C124.7 520.3 142.3 515.7 160 512.5C177.7 509.3 195.3 507.7 213.2 508.8C231 510 249 514 266.8 516.8C284.7 519.7 302.3 521.3 320 519.3C337.7 517.3 355.3 511.7 373.2 508.5C391 505.3 409 504.7 426.8 504.2C444.7 503.7 462.3 503.3 480 505.7C497.7 508 515.3 513 533.2 516.7C551 520.3 569 522.7 586.8 521.7C604.7 520.7 622.3 516.3 640 512.5C657.7 508.7 675.3 505.3 693.2 506.7C711 508 729 514 746.8 516.8C764.7 519.7 782.3 519.3 800 519.5C817.7 519.7 835.3 520.3 853.2 518C871 515.7 889 510.3 906.8 509.7C924.7 509 942.3 513 951.2 515L960 517L960 541L951.2 541C942.3 541 924.7 541 906.8 541C889 541 871 541 853.2 541C835.3 541 817.7 541 800 541C782.3 541 764.7 541 746.8 541C729 541 711 541 693.2 541C675.3 541 657.7 541 640 541C622.3 541 604.7 541 586.8 541C569 541 551 541 533.2 541C515.3 541 497.7 541 480 541C462.3 541 444.7 541 426.8 541C409 541 391 541 373.2 541C355.3 541 337.7 541 320 541C302.3 541 284.7 541 266.8 541C249 541 231 541 213.2 541C195.3 541 177.7 541 160 541C142.3 541 124.7 541 106.8 541C89 541 71 541 53.2 541C35.3 541 17.7 541 8.8 541L0 541Z" fill="#00aecc"></path><path d="M0 524L8.8 521.7C17.7 519.3 35.3 514.7 53.2 515.5C71 516.3 89 522.7 106.8 524.7C124.7 526.7 142.3 524.3 160 523.2C177.7 522 195.3 522 213.2 520.5C231 519 249 516 266.8 514.2C284.7 512.3 302.3 511.7 320 513.3C337.7 515 355.3 519 373.2 520.2C391 521.3 409 519.7 426.8 519.5C444.7 519.3 462.3 520.7 480 519.8C497.7 519 515.3 516 533.2 514.3C551 512.7 569 512.3 586.8 512.3C604.7 512.3 622.3 512.7 640 514.7C657.7 516.7 675.3 520.3 693.2 523C711 525.7 729 527.3 746.8 528C764.7 528.7 782.3 528.3 800 525.7C817.7 523 835.3 518 853.2 517.7C871 517.3 889 521.7 906.8 524.2C924.7 526.7 942.3 527.3 951.2 527.7L960 528L960 541L951.2 541C942.3 541 924.7 541 906.8 541C889 541 871 541 853.2 541C835.3 541 817.7 541 800 541C782.3 541 764.7 541 746.8 541C729 541 711 541 693.2 541C675.3 541 657.7 541 640 541C622.3 541 604.7 541 586.8 541C569 541 551 541 533.2 541C515.3 541 497.7 541 480 541C462.3 541 444.7 541 426.8 541C409 541 391 541 373.2 541C355.3 541 337.7 541 320 541C302.3 541 284.7 541 266.8 541C249 541 231 541 213.2 541C195.3 541 177.7 541 160 541C142.3 541 124.7 541 106.8 541C89 541 71 541 53.2 541C35.3 541 17.7 541 8.8 541L0 541Z" fill="#00d6e9"></path><path d="M0 524L8.8 524.7C17.7 525.3 35.3 526.7 53.2 527.2C71 527.7 89 527.3 106.8 527.8C124.7 528.3 142.3 529.7 160 529.5C177.7 529.3 195.3 527.7 213.2 526.5C231 525.3 249 524.7 266.8 524.2C284.7 523.7 302.3 523.3 320 523C337.7 522.7 355.3 522.3 373.2 523C391 523.7 409 525.3 426.8 526.5C444.7 527.7 462.3 528.3 480 528.8C497.7 529.3 515.3 529.7 533.2 530C551 530.3 569 530.7 586.8 530.5C604.7 530.3 622.3 529.7 640 529.2C657.7 528.7 675.3 528.3 693.2 527.7C711 527 729 526 746.8 525.2C764.7 524.3 782.3 523.7 800 523.5C817.7 523.3 835.3 523.7 853.2 525C871 526.3 889 528.7 906.8 529.3C924.7 530 942.3 529 951.2 528.5L960 528L960 541L951.2 541C942.3 541 924.7 541 906.8 541C889 541 871 541 853.2 541C835.3 541 817.7 541 800 541C782.3 541 764.7 541 746.8 541C729 541 711 541 693.2 541C675.3 541 657.7 541 640 541C622.3 541 604.7 541 586.8 541C569 541 551 541 533.2 541C515.3 541 497.7 541 480 541C462.3 541 444.7 541 426.8 541C409 541 391 541 373.2 541C355.3 541 337.7 541 320 541C302.3 541 284.7 541 266.8 541C249 541 231 541 213.2 541C195.3 541 177.7 541 160 541C142.3 541 124.7 541 106.8 541C89 541 71 541 53.2 541C35.3 541 17.7 541 8.8 541L0 541Z" fill="#00ffff"></path></svg>